# xmcd
# Track frame offsets:
# 150
# 12068
# 22448
# 39947
# 57198
# 80380
# 103913
# 124774
# 137555
# 157766
# 178652
#
# Disc length: 2612 seconds
# Revision: 3
# Processed by: cddbd v1.5.2PL0 Copyright (c) Steve Scherf et al.
# Submitted via: VisiTrax 2.10.3.257 - For more info visit www.synapsa.com
#
DISCID=850a320b
DTITLE=Broussard, Marc - S.O.S.: Save Our Soul
DYEAR=2007
DGENRE=Blues
TTITLE0=You Met Your Match
TTITLE1=If I Could Build My Whole World Around You
TTITLE2=Harry Hippie
TTITLE3=Let The Music Get Down In Your Soul
TTITLE4=I Love You More Than You'll Ever Know
TTITLE5=Inner City Blues
TTITLE6=Love And Happiness
TTITLE7=I've Been Loving You So Long
TTITLE8=Respect Yourself
TTITLE9=Yes We Can Can
TTITLE10=Come In From The Cold
EXTD=MARC BROUSSARD - Vocals, CHAD GILMORE - Drums, Percussion, CALVIN TURN
EXTD=ER - Bass, Percussion, Vibes. PRODUCED BY JUSTIN TOCKET and CALVIN TURNE
EXTD=R. Horns and Strings Arranged by Calvin Turner. Recorded and Mixed b
EXTD=y Justin Tocket. Assisted by Joe Martino - Additional Recording by Jo
EXTD=e Martino and Casey Woods - Joe Martino assisted by Leslie Richter - Pro
EXTD=duction coordinator: Arik Abel - Recorded in Nashville, TN at GrounSta
EXTD=r Recording Lab, Ocean Way Studios and The Insanery. VANGUARD 79826-2.
EXTT0=
EXTT1=
EXTT2=
EXTT3=
EXTT4=
EXTT5=
EXTT6=
EXTT7=
EXTT8=
EXTT9=
EXTT10=
PLAYORDER=
